<svg xmlns="http://www.w3.org/2000/svg" viewBox="0 0 20 17" focusable="false">
  <g fill-rule="nonzero">
    <path d="M18.1 2.6s.1 0 0 0l.1 10.9h-6.5l-.6.5-1.1 1-1.1-1-.5-.5H1.9h-.1V2.6h16.3zm0-1.8H1.9C.9.8 0 1.6 0 2.6v11.2c0 1 .9 1.4 1.9 1.4h5.7L9.5 17h.9l1.9-1.8H18c1 0 1.9-.5 1.9-1.4V2.6c.1-1-.8-1.8-1.8-1.8z"/>
    <path d="M7.4 10.3c.6 0 1.2-.1 1.6-.3l.3 1.3c-.5.3-1.4.5-2.2.5-2.4 0-3.6-1.4-3.6-3.6s1.2-3.6 3.6-3.6c.8 0 1.7.2 2.2.5L9 6.3c-.4-.2-1-.4-1.6-.4-1.5 0-2 .9-2 2.2-.1 1.3.5 2.2 2 2.2M14.6 10.3c.6 0 1.2-.1 1.6-.3l.3 1.3c-.5.3-1.4.5-2.2.5-2.4 0-3.6-1.4-3.6-3.6s1.2-3.6 3.6-3.6c.8 0 1.7.2 2.2.5l-.3 1.3c-.4-.2-1-.4-1.6-.4-1.5 0-2 .9-2 2.2 0 1.2.5 2.1 2 2.1"/>
  </g>
</svg>
