<svg xmlns="http://www.w3.org/2000/svg" viewBox="0 0 239 233">
  <path d="M150.2 105.3l15.6-14.6c5.2-5 5.2-13.3 0-18.3s-13.7-5-18.4 0l-15.1 15-3.3-2.7a14.6 14.6 0 0 1 0-21.4l32.6-32c3.3-2.8 7-4.6 11.3-4.6 4.2 0 8.5 1.8 11.3 4.6L208.8 55a14 14 0 0 1 4.7 11c0 4.6-2 7.8-4.7 11l-32.6 31.5a16 16 0 0 1-22.2 0l-3.8-3.2zm-123.6 63c0-4 1.9-7.7 4.7-10.5L64 126.3c2.8-3.2 6.6-5 11.3-5 4.2 0 8 1.8 11.3 5l3.3 2.8s-14.6 14.1-15.5 14.6c-5.2 5-5.2 13.2 0 17.8 5.1 5 13.6 5 18.8 0l15.1-15 2.4 3.1a14.6 14.6 0 0 1 0 21.5l-32.6 32c-6.1 6-16.5 6-22.2 0l-24.5-23.8a15.7 15.7 0 0 1-4.7-11zm-14.2-28.7a39.2 39.2 0 0 0 0 57L37 220.5a42.9 42.9 0 0 0 59.4 0L129 189a41.3 41.3 0 0 0 12.3-28.8c0-11-4.8-21-12.3-28.8l-3.3-3.2 6.1-5.9 2.9 3.2a46 46 0 0 0 29.7 11.9c11.3 0 21.7-4.6 29.7-11.9L226.7 94C234.7 86 239 76 239 65s-4.3-21-12.3-28.8L202 12.6a42 42 0 0 0-29.7-12 42 42 0 0 0-29.7 12L110 44a39.4 39.4 0 0 0-12.3 28.8c0 11 4.8 21 12.3 28.8l3.3 2.7-6.1 6-3.3-2.8a40.2 40.2 0 0 0-29.3-11.9A44.1 44.1 0 0 0 45 107.6l-32.6 32z"/>
</svg>
