<svg xmlns="http://www.w3.org/2000/svg" viewBox="0 0 20 17" focusable="false">
  <path fill-rule="nonzero" d="M1.9.8h16.2c1 0 1.9.8 1.8 1.8v11.2c0 .9-.9 1.4-1.9 1.4h-5.7L10.4 17h-.9l-1.9-1.8H1.9c-1 0-1.9-.4-1.9-1.4V2.6C0 1.6.9.8 1.9.8zm5.5 9.5c-1.5 0-2.1-.9-2-2.2 0-1.3.5-2.2 2-2.2.6 0 1.2.2 1.6.4l.3-1.2c-.5-.3-1.4-.5-2.2-.5-2.4 0-3.6 1.4-3.6 3.6s1.2 3.6 3.6 3.6c.8 0 1.7-.2 2.2-.5L9 10c-.4.2-1 .3-1.6.3zm7.2 0c-1.5 0-2-.9-2-2.1 0-1.3.5-2.2 2-2.2.6 0 1.2.2 1.6.4l.3-1.3c-.5-.3-1.4-.5-2.2-.5-2.4 0-3.6 1.4-3.6 3.6s1.2 3.6 3.6 3.6c.8 0 1.7-.2 2.2-.5l-.3-1.3c-.4.2-1 .3-1.6.3z"/>
</svg>
