<svg xmlns="http://www.w3.org/2000/svg" viewBox="0 0 213.5 161.9" focusable="false">
  <path d="M0 47.6h19v66.7H0zM28.6 47.6v66.7l76.2 47.6V0zM128.6 0c-1.6 0-3.2.2-4.8.2v14.3c1.6-.1 3.2-.2 4.8-.2 36.8-.5 67 29 67.5 65.9.5 36.8-29 67-65.9 67.5h-1.6c-1.6 0-3.2-.1-4.8-.2v14.3c1.6.1 3.2.2 4.8.2 44.7 1.3 82-33.9 83.3-78.6S178.1 1.3 133.4 0h-4.8z"/>
  <path d="M128.6 38.1c-1.6 0-3.1.1-4.7.3v14.4c1.6-.3 3.1-.4 4.7-.4 15.8-.3 28.8 12.3 29.1 28 .3 15.8-12.3 28.8-28 29.1h-1.1c-1.6 0-3.2-.1-4.7-.4v14.4c23.5 2.6 44.7-14.4 47.3-37.9S156.8 41 133.3 38.4c-1.6-.2-3.1-.3-4.7-.3z"/>
</svg>
