<svg xmlns="http://www.w3.org/2000/svg" xmlns:xlink="http://www.w3.org/1999/xlink" viewBox="0 0 280 255">
    <path fill="#fff" fill-rule="nonzero" d="M157.72 247.61a6.98 6.98 0 1013.68-2.84 7.01 7.01 0 00-8.27-5.41c-3.74.8-6.2 4.5-5.41 8.25m25.9-6.14a8.12 8.12 0 0010.78 4.01 8.19 8.19 0 003.95-10.85 8.08 8.08 0 00-10.8-3.93 8.2 8.2 0 00-3.93 10.77m26.55-12.7a9.87 9.87 0 0014.07 1.33 9.98 9.98 0 001.3-14.12 9.86 9.86 0 00-14.01-1.28 10.01 10.01 0 00-1.36 14.07m25.09-21.26a11.58 11.58 0 1013.17-19.08 11.54 11.54 0 00-16.15 2.95c-3.56 5.24-2.32 12.57 2.98 16.13m18.42-27.67a13.68 13.68 0 008.54-26 13.62 13.62 0 00-17.2 8.7 13.68 13.68 0 008.66 17.3M108.12 10.18a6.97 6.97 0 008.3 5.45 6.97 6.97 0 005.4-8.27 7 7 0 00-13.7 2.82M81.17 20.4a8.06 8.06 0 0010.8 3.9 8.06 8.06 0 003.94-10.73 8.22 8.22 0 00-10.76-3.99 8.21 8.21 0 00-3.98 10.82M53.94 38.98a9.92 9.92 0 0014.1 1.3 9.96 9.96 0 001.35-14.04 9.92 9.92 0 00-14.1-1.35 9.97 9.97 0 00-1.35 14.09M31.11 66.6a11.64 11.64 0 0016.19-2.97 11.71 11.71 0 00-3.02-16.16 11.58 11.58 0 00-16.1 2.94 11.67 11.67 0 002.93 16.2m-13.8 34.58a13.66 13.66 0 10-8.7-17.27 13.71 13.71 0 008.7 17.27M139.8 242.95a6.03 6.03 0 000 12.05c3.3-.05 6.01-2.7 6.01-6.03 0-3.28-2.7-6.02-6-6.02m-23.37-3.6a7.03 7.03 0 00-8.27 5.44 7 7 0 005.4 8.28 6.96 6.96 0 008.26-5.42 7.05 7.05 0 00-5.39-8.3m-24.5-8.65a8 8 0 00-10.74 3.9 8.16 8.16 0 003.96 10.81c4 1.88 8.85.17 10.76-3.98 1.87-4 .06-8.88-3.99-10.73m-23.89-16a9.99 9.99 0 00-14.09 1.32 9.95 9.95 0 001.33 14.08 9.9 9.9 0 0014.11-1.33 10.01 10.01 0 00-1.35-14.07m-20.77-23.32a11.58 11.58 0 00-16.12-2.9 11.7 11.7 0 00-3.03 16.15 11.72 11.72 0 0016.2 2.9 11.62 11.62 0 002.95-16.15m-12.7-28.88a13.69 13.69 0 00-17.22-8.68 13.7 13.7 0 00-8.73 17.26 13.64 13.64 0 0017.25 8.72 13.74 13.74 0 008.7-17.3m-3.05-35.01c0-8.7-7.03-15.8-15.77-15.8A15.8 15.8 0 000 127.49c0 8.76 7.06 15.87 15.74 15.87a15.8 15.8 0 0015.77-15.87M139.72 0a5.97 5.97 0 00-5.97 6 6 6 0 005.97 6.03 6.01 6.01 0 000-12.03M166 1.98a6.92 6.92 0 00-8.25 5.4 6.97 6.97 0 1013.66 2.82 6.93 6.93 0 00-5.4-8.22m28.37 7.6a8.21 8.21 0 00-10.76 3.94 8.2 8.2 0 003.94 10.78 8.12 8.12 0 106.82-14.72m29.84 15.33a9.93 9.93 0 00-14.07 1.35 10 10 0 001.34 14.08A9.92 9.92 0 00225.55 39a9.96 9.96 0 00-1.33-14.09m27.12 25.5a11.56 11.56 0 00-16.12-2.92 11.65 11.65 0 00-2.96 16.12 11.52 11.52 0 0016.16 3 11.66 11.66 0 002.92-16.2m19.59 33.51a13.67 13.67 0 00-17.25-8.71 13.7 13.7 0 00-8.67 17.27 13.7 13.7 0 0017.2 8.69 13.72 13.72 0 008.72-17.25m-7.18 59.44c-8.71 0-15.77-7.11-15.77-15.87a15.8 15.8 0 0115.77-15.8 15.83 15.83 0 010 31.67M195.81 201.87a5.4 5.4 0 007.6.64 5.3 5.3 0 00.6-7.56 5.44 5.44 0 00-7.52-.59 5.37 5.37 0 00-.68 7.5m15.22-13.55a6.15 6.15 0 008.65-1.31 6.19 6.19 0 10-9.93-7.38 6.23 6.23 0 001.28 8.7m13.28-18.55a7.19 7.19 0 009.5-4.1c1.51-3.76-.23-8-4.06-9.53a7.28 7.28 0 00-9.51 4.1 7.41 7.41 0 004.07 9.53m9.08-24.26a7.73 7.73 0 101.66-15.39 7.74 7.74 0 10-1.66 15.4m1.99-25.14a9.39 9.39 0 007.6-11.04 9.42 9.42 0 00-11.01-7.64 9.5 9.5 0 003.4 18.68M75.96 60.88a5.44 5.44 0 007.57.64 5.43 5.43 0 00.66-7.58 5.44 5.44 0 00-7.57-.58 5.4 5.4 0 00-.66 7.51M61.6 77.54a6.13 6.13 0 008.65-1.36 6.04 6.04 0 00-1.24-8.57 6.12 6.12 0 00-8.65 1.25 6.22 6.22 0 001.24 8.68M50.23 99.7a7.4 7.4 0 009.59-4.12 7.33 7.33 0 00-4.1-9.51 7.38 7.38 0 00-9.6 4.09 7.43 7.43 0 004.1 9.54M45 125.73c4.24.53 8.07-2.66 8.62-6.9a7.91 7.91 0 00-7.05-8.5 7.76 7.76 0 00-8.48 6.87 7.7 7.7 0 006.91 8.53m3.04 28.44a9.4 9.4 0 007.65-11 9.4 9.4 0 00-11.04-7.68 9.5 9.5 0 103.39 18.68m134.07 51.16a4.6 4.6 0 004.42 8.07 4.61 4.61 0 00-4.42-8.07m-16.98 6.16a5.4 5.4 0 00-3.58 6.62 5.42 5.42 0 006.68 3.65 5.43 5.43 0 003.56-6.73 5.4 5.4 0 00-6.66-3.54m-19.6 3.13a6.11 6.11 0 00-5.76 6.56 6.2 6.2 0 0012.34-.82 6.13 6.13 0 00-6.58-5.74m-21.8-2.36a8.06 8.06 0 00-9.43 6.3 8.07 8.07 0 006.32 9.5c4.44.85 8.61-2 9.47-6.41a8.02 8.02 0 00-6.36-9.39m-22.25-8.25a9.6 9.6 0 00-12.75 4.27 9.7 9.7 0 004.15 12.79c4.7 2.3 10.4.4 12.84-4.33a9.55 9.55 0 00-4.24-12.73m-18.76-14.7a11.15 11.15 0 00-15.23 16.3 11.17 11.17 0 0015.76-.47c4.22-4.6 4.01-11.63-.53-15.82m-15.38-21.84a12.1 12.1 0 00-16.38-4.81 12.06 12.06 0 00-4.74 16.37 12.09 12.09 0 0016.32 4.9 12.18 12.18 0 004.8-16.46M93.5 42.46a4.56 4.56 0 00-1.85 6.22 4.58 4.58 0 006.25 1.84 4.7 4.7 0 001.86-6.25 4.6 4.6 0 00-6.26-1.81m18.32-8.3a5.34 5.34 0 003.07 10.22 5.31 5.31 0 003.55-6.67 5.25 5.25 0 00-6.62-3.55m21.8-5.27a6.24 6.24 0 00-5.76 6.56 6.27 6.27 0 006.6 5.82c3.45-.2 6-3.21 5.8-6.64a6.23 6.23 0 00-6.63-5.74m25.77-1.01a8 8 0 00-9.46 6.34 8.04 8.04 0 0015.81 3.07 8.07 8.07 0 00-6.35-9.41m26.88 6.44a9.4 9.4 0 00-12.69 4.4 9.5 9.5 0 004.32 12.68 9.45 9.45 0 0012.71-4.36 9.5 9.5 0 00-4.34-12.72m26.35 15.87a11.11 11.11 0 00-15.77.5 11.27 11.27 0 00.55 15.83 11.2 11.2 0 0015.77-.54 11.16 11.16 0 00-.55-15.79m21.23 26.61a12.17 12.17 0 00-16.4-4.86A12.12 12.12 0 00229 93.25a12.18 12.18 0 004.84-16.45M180.92 178.56c2.53 2.45 6.27 2.53 8.67-.03a5.76 5.76 0 00.04-8.45 6 6 0 00-8.6-.16c-2.37 2.4-2.4 6.35-.1 8.64M89.45 86.02c2.45 2.42 6.34 2.53 8.71-.04a6.15 6.15 0 00-.02-8.64 6.17 6.17 0 00-8.64 0 6.33 6.33 0 00-.05 8.68m107.67 72.75a6.13 6.13 0 008.04-3.29 6.2 6.2 0 00-3.27-8.03 5.83 5.83 0 00-7.89 3.29 6.07 6.07 0 003.12 8.03m8.24-22.26a7.33 7.33 0 007.39-7.29 7.29 7.29 0 00-7.15-7.48 7.4 7.4 0 00-7.5 7.2 7.68 7.68 0 007.26 7.57m.13-24.14a9.3 9.3 0 005.2-12.3c-1.82-4.76-7.2-7.3-11.95-5.4a9.47 9.47 0 106.75 17.7M77.22 108.5a6.26 6.26 0 008.05-3.38 6.3 6.3 0 00-3.25-8.07A6.11 6.11 0 0074 100.4a6.28 6.28 0 003.22 8.09m-3.65 25.7a7.45 7.45 0 007.38-7.3 7.39 7.39 0 00-7.09-7.4 7.3 7.3 0 00-7.54 7.14 7.42 7.42 0 007.25 7.56m6.93 27.02a9.43 9.43 0 005.35-12.37 9.17 9.17 0 00-12.14-5.28 9.46 9.46 0 00-5.38 12.2 9.41 9.41 0 0012.17 5.45m81.26 21.06a6.54 6.54 0 00-3.58 8.61 6.72 6.72 0 008.64 3.74 6.6 6.6 0 003.54-8.76 6.44 6.44 0 00-8.6-3.6m-22.4 3.02c-4.84-.08-8.83 4-8.94 8.92a9.13 9.13 0 008.87 9.05 9.15 9.15 0 009.03-8.94c.06-4.88-3.96-8.9-8.96-9.03m-21.03-4.32c-5.19-2.2-11.08.47-13.23 5.71-2 5.2.57 11.19 5.72 13.19a9.98 9.98 0 0013.07-5.51 10.31 10.31 0 00-5.56-13.4m-18.4-13.45a11.07 11.07 0 00-15.79-.1 11.32 11.32 0 00-.2 16.01 11.37 11.37 0 0015.99.12 11.34 11.34 0 000-16.03m12.44-106.15a6.67 6.67 0 00-3.66 8.61 6.83 6.83 0 008.75 3.77 6.74 6.74 0 003.51-8.78 6.49 6.49 0 00-8.6-3.6m27.5-8.7a9.02 9.02 0 00-8.98 9.04 9.04 9.04 0 008.95 8.8c4.8.1 8.92-3.97 8.82-8.9a8.96 8.96 0 00-8.79-8.94m28.61 3.4a10.24 10.24 0 00-13.2 5.54c-2.05 5.13.5 11.3 5.57 13.34a10.1 10.1 0 0013.2-5.68 10.13 10.13 0 00-5.57-13.2m26.62 16.47c-4.49-4.44-11.59-4.53-15.98.06-4.37 4.21-4.37 11.4 0 15.78a11.2 11.2 0 0015.91.12c4.45-4.5 4.56-11.54.07-15.96M101.84 140.26a4.25 4.25 0 003.18-4.89c-.48-2.28-2.68-3.83-4.9-3.26a3.96 3.96 0 00-3.24 4.74c.46 2.35 2.65 3.95 4.96 3.41m78.37-16.43a4.27 4.27 0 003.18-4.89c-.5-2.32-2.7-3.87-4.9-3.28a4 4 0 00-3.24 4.78 4.22 4.22 0 004.96 3.4m-68.8 33.86a5.95 5.95 0 001.05-8.2 6.03 6.03 0 00-8.17-.97 5.74 5.74 0 00-.88 8.06 5.65 5.65 0 008 1.11m64.07-50.5a5.94 5.94 0 001.04-8.2 6 6 0 00-8.15-.95 5.73 5.73 0 00-.87 8.06 5.61 5.61 0 007.98 1.1m-42.75 62.55a7.7 7.7 0 00-4.46-10c-4.14-1.61-8.47.43-10.16 4.63-1.54 3.96.57 8.43 4.64 10a7.88 7.88 0 009.98-4.63m29.12-78.03a7.72 7.72 0 00-4.5-9.97c-4.12-1.6-8.44.45-10.16 4.63-1.56 3.97.59 8.44 4.61 10a7.94 7.94 0 0010.05-4.66m12.1 45.23c-.7 3.21.89 6.21 3.97 7.04a5.8 5.8 0 007.02-4.04 5.63 5.63 0 00-4.06-6.89 5.6 5.6 0 00-6.93 3.9m-10.74 14.46a8.76 8.76 0 00.06 12.11c3.37 3.23 8.66 3.17 11.7-.03a8.3 8.3 0 00.22-11.97 8.48 8.48 0 00-11.98-.11m-16.17 8.48c-4.55 1.14-7.72 5.85-6.6 10.47a8.84 8.84 0 0010.52 6.8c4.8-.99 7.7-5.83 6.75-10.56a9 9 0 00-10.67-6.71m-51.96-44.1c-.85 3.16.92 6.16 4.07 7.12a5.68 5.68 0 002.83-11 5.62 5.62 0 00-6.9 3.89m9.75-23.43c-3.16 3.38-3.33 8.67-.04 11.93a8.44 8.44 0 0012.03 0 8.5 8.5 0 00-.12-11.93 8.43 8.43 0 00-11.87 0m24.26-13.62a8.87 8.87 0 00-6.91 10.42c1.22 4.77 5.83 7.81 10.66 6.7a8.83 8.83 0 006.66-10.5c-1.1-4.7-5.83-7.75-10.41-6.62" />
</svg>
